<svg width="24" height="24" viewBox="0 0 24 24" fill="none" xmlns="http://www.w3.org/2000/svg">
<path d="M3.79688 10.9375C3.79688 14.4453 6.64844 17.2969 10.1562 17.2969C11.4609 17.2969 12.6562 16.8984 13.6562 16.2188L17.25 19.8125C17.4688 20.0391 17.7734 20.1406 18.0781 20.1406C18.7422 20.1406 19.2188 19.6406 19.2188 18.9922C19.2188 18.6797 19.1094 18.3906 18.8984 18.1719L15.3281 14.5938C16.0703 13.5703 16.5156 12.3047 16.5156 10.9375C16.5156 7.42969 13.6641 4.57812 10.1562 4.57812C6.64844 4.57812 3.79688 7.42969 3.79688 10.9375ZM5.45312 10.9375C5.45312 8.34375 7.55469 6.23438 10.1562 6.23438C12.75 6.23438 14.8594 8.34375 14.8594 10.9375C14.8594 13.5312 12.75 15.6406 10.1562 15.6406C7.55469 15.6406 5.45312 13.5312 5.45312 10.9375Z" fill="#C4C4C4"/>
</svg>
